<?xml version="1.0" encoding="utf-8" ?><svg xmlns="http://www.w3.org/2000/svg" xmlns:xlink="http://www.w3.org/1999/xlink" width="1024" height="1024" viewBox="0 0 1024 1024"><path fill="#FFFFFF" d="M327.915 832.613C311.994 826.174 289.738 811.41 276.045 800.791C226.076 762.562 187.04 711.863 162.854 653.782C125.098 563.011 124.317 461.079 160.679 369.741C192.528 291.473 246.763 227.301 320.007 185.073C333.032 177.564 345.217 170.925 359.114 165.061C454.279 124.183 561.834 123.036 657.848 161.876C750.228 199.253 823.788 272.076 862.094 364.075C930.84 528.247 875.023 719.14 725.099 816.933C715.458 823.221 704.833 827.971 694.633 833.23L694.35 832.222C720.996 814.52 755.356 780.939 774.797 755.586C831.513 681.621 854.406 595.632 842.133 503.372C832.037 431.647 798.976 365.123 747.901 313.763C735.95 301.951 723.217 290.956 709.789 280.853C699.13 272.716 691.154 267.817 679.749 261.099C615.456 223.336 540.269 208.461 466.44 218.898C394.748 228.867 328.401 262.378 277.829 314.163C258.662 333.582 240.463 356.506 226.548 380.044C187.791 446.282 172.518 523.66 183.2 599.657C192.174 660.453 217.639 717.626 256.828 764.965C276.774 788.928 303.931 813.293 328.78 832.006L327.915 832.613Z"/><path fill="#FFFFFF" d="M332.182 833.943C333.982 821.877 334.211 800.437 334.983 787.467L340.955 688.369L346.771 593.773C348.059 571.318 353.849 542.927 339.856 523.507C333.714 514.984 323.963 509.845 316.569 502.545C293.677 480.936 287.2 445.482 291.993 415.308C296.345 387.909 308.039 358.392 330.555 340.908C356.347 320.879 385.374 332.405 402.844 357.241C431.314 397.714 438.324 464.67 401.134 502.301C396.573 506.896 390.675 510.681 385.747 514.876C376.138 523.105 369.934 534.615 368.343 547.166C367.383 555.387 368.715 566.679 369.436 575.107L371.774 605.664C376.002 664.407 379.572 723.195 382.484 782.018L384.622 820.483C385.02 827.853 386.05 834.982 385.169 842.393C381.147 876.198 333.686 872.793 332.538 839.547C332.49 838.161 332.487 835.963 332.048 834.712L332.182 833.943Z"/><path fill="#FFFFFF" d="M521.867 319.176C526.522 319.085 530.075 320.528 533.495 323.738C538.771 328.709 537.615 337.504 537.372 344.223C536.54 367.295 536.328 390.378 535.98 413.465L531.992 623.654C533.556 625.18 534.867 626.723 536.303 628.363C537.958 642.314 537.873 659.823 538.531 674.24L542.549 779.192L544.515 835.251C544.904 844.715 546.69 861.392 545.136 870.097C541.157 892.389 511.166 898.873 497.576 879.432C489.822 866.953 493.05 854.518 493.646 840.502L495.714 788.046L499.69 688.15C500.46 668.161 500.892 647.53 502.164 627.588C504.262 625.723 504.857 625.4 507.348 624.063C507.451 618.109 507.449 612.154 507.344 606.2L506.72 605.606C501.732 600.795 482.458 592.383 475.236 587.659C473.389 578.932 472.26 558.585 471.702 549.187C467.776 483.548 474.675 417.194 496.734 355.014C498.662 349.58 500.656 344.087 502.808 338.74C506.877 328.628 510.352 321.527 521.867 319.176Z"/><path fill="#FFFFFF" d="M701.306 347.911C704.654 376.586 709.038 406.399 712.874 435.223C713.959 443.434 714.958 451.656 715.873 459.888C717.799 475.871 719.609 491.737 707.924 505.269C696.426 518.585 679.054 524.512 674.404 543.674C669.945 559.343 672.406 572.677 673.472 588.506L677.557 646.319C681.061 696.354 683.951 746.431 686.228 796.537C687.064 813.074 691.877 840.326 684.195 854.417C673.097 874.776 635.857 866.725 635.947 843.07C636.046 817.074 638.049 788.902 639.694 762.958L648.867 615.517L651.058 582.753C653.32 549.675 653.256 534.955 624.647 514.018C616.131 507.786 607.422 489.597 607.213 479.042C606.795 473.448 608.063 464.465 608.737 458.614L612.052 430.107L619.681 367.824L622.785 341.17C623.28 336.573 622.295 324.778 628.18 324.937C629.182 325.68 629.75 326.321 629.817 327.717C631.952 372.471 634.137 417.248 636.424 461.987C636.512 463.696 638.601 465.468 640.039 466.17C644.356 468.278 649.509 467.009 650.032 461.503C651.414 446.947 652.265 432.32 653.214 417.717L657.778 351.601C658.142 345.736 658.329 339.877 658.551 334.007C658.66 331.137 658.406 326.224 661.149 324.773C661.918 325.074 662.957 325.291 663.101 326.249C664.952 338.521 665.564 357.167 666.406 369L671.348 437.512C671.847 445.045 671.935 454.63 673.21 461.973C673.558 463.977 675.701 466.528 677.782 467.364C679.253 467.946 680.902 467.875 682.318 467.169C688.168 464.309 687.641 455.226 687.87 449.71C688.12 443.667 688.288 437.643 688.628 431.6L691.787 381.41C692.429 371.098 692.732 361.453 693.652 351.06C693.785 350.897 695.636 348.84 695.616 348.485C695.419 345.73 696.513 339.944 695.515 337.579C694.4 334.938 695.328 334.66 695.606 332C695.634 331.729 695.11 325.597 696.889 326.191C696.988 326.428 696.987 326.731 697.159 326.836C700.166 328.857 696.766 330.517 697.998 333.711C698.64 335.376 698.019 339.356 698.87 341.503C699.18 342.284 699.085 346.273 699.456 346.804L699.651 346.815C699.97 346.517 699.979 345.966 700.335 345.727C701.342 346.606 698.979 347.596 701.306 347.911Z"/><path fill="#FFFFFF" fill-opacity="0.96470588" d="M693.652 351.06C694.415 343.638 694.236 335.974 694.785 328.496C693.596 327.476 696.922 323.459 697.719 325.008C700.42 330.256 700.128 341.972 701.306 347.911C698.979 347.596 701.342 346.606 700.335 345.727C699.979 345.966 699.97 346.517 699.651 346.815L699.456 346.804C699.085 346.273 699.18 342.284 698.87 341.503C698.019 339.356 698.64 335.376 697.998 333.711C696.766 330.517 700.166 328.857 697.159 326.836C696.987 326.731 696.988 326.428 696.889 326.191C695.11 325.597 695.634 331.729 695.606 332C695.328 334.66 694.4 334.938 695.515 337.579C696.513 339.944 695.419 345.73 695.616 348.485C695.636 348.84 693.785 350.897 693.652 351.06Z"/><path fill="#070409" fill-opacity="0.87058824" d="M328.78 832.006C329.973 832.638 331.079 833.156 332.182 833.943L332.048 834.712C330.297 834.025 329.565 833.542 327.915 832.613L328.78 832.006Z"/><path fill="#FFFFFF" fill-opacity="0.87450981" d="M692.518 834.126C691.05 834.659 690.511 835.24 689.278 835.828C689.067 835.789 689.157 835.838 689.011 835.678C688.785 834.452 691.766 833.616 692.507 833.335L692.518 834.126Z"/><path fill="#070409" fill-opacity="0.76078433" d="M694.35 832.222L694.633 833.23C693.9 833.558 693.257 833.827 692.518 834.126L692.507 833.335C693.269 832.827 693.551 832.651 694.35 832.222Z"/></svg>